<?xml version="1.0" encoding="utf-8"?>
<!-- Generator: Adobe Illustrator 22.0.1, SVG Export Plug-In . SVG Version: 6.00 Build 0)  -->
<svg version="1.1" id="Слой_1" xmlns="http://www.w3.org/2000/svg" xmlns:xlink="http://www.w3.org/1999/xlink" x="0px" y="0px"
	 viewBox="0 0 425 350.5" style="enable-background:new 0 0 425 350.5;" xml:space="preserve">
<style type="text/css">
	.st0{stroke:#000000;stroke-width:2;stroke-miterlimit:10;}
	.st1{display:none;stroke:#000000;stroke-width:2;stroke-miterlimit:10;}
	.st2{enable-background:new    ;}
	.st3{fill:#BC1200;stroke:#000000;stroke-width:2;stroke-miterlimit:10;}
</style>
<g transform="translate(0.000000,120.000000) scale(0.100000,-0.100000)">
	<path class="st0" d="M971.9,895.7c0-92.9,12.8-137.7,25.6-112.1c19.2,28.8,41.6,0,67.2-86.5c22.4-76.9,108.9-208.1,211.3-320.2
		c166.5-176.1,211.3-259.4,147.3-259.4c-51.2,0-352.2,342.6-397.1,457.9c-28.8,60.8-80.1,128.1-115.3,150.5
		c-60.8,32-67.2,25.6-67.2-60.8c0-51.2-16-105.7-32-115.3c-35.2-22.4-9.6-256.2,35.2-336.2c19.2-32,22.4-16,12.8,48
		c-12.8,73.6-9.6,83.3,12.8,32c16-35.2,99.3-128.1,182.5-204.9c86.5-73.6,188.9-166.5,230.6-204.9c54.4-48,83.3-54.4,99.3-25.6
		c19.2,28.8,48,28.8,108.9,6.4c105.7-41.6,115.3,6.4,16,73.6c-48,35.2-80.1,38.4-108.9,16c-28.8-25.6-60.8-22.4-102.5,9.6
		c-265.8,188.9-432.3,419.5-416.3,579.6l9.6,102.5l89.7-153.7C1084,316.1,1410.6-20.1,1436.2,21.5c9.6,12.8,44.8,19.2,80.1,9.6
		c67.2-16,89.7,35.2,32,70.4c-19.2,12.8-25.6,35.2-16,51.2c12.8,16,73.6-6.4,137.7-51.2s134.5-80.1,153.7-80.1
		c41.6,0,333-310.6,333-349c0-41.6,448.3-153.7,528.4-134.5c32,9.6,265.8,3.2,432.3-6.4c44.8-3.2,83.3,6.4,86.5,25.6
		c6.4,16-22.4,32-64,32c-51.2,0-67.2,16-60.8,64c6.4,35.2,12.8,99.3,16,144.1s19.2,89.7,35.2,102.5c19.2,12.8,35.2,70.4,41.6,128.1
		c3.2,57.6,16,195.3,25.6,304.2c19.2,204.9-25.6,307.4-60.8,134.5c-9.6-51.2-60.8-160.1-115.3-237c-121.7-179.3-121.7-214.5,0-96.1
		c67.2,64,96.1,76.9,96.1,44.8c0-57.6-163.3-220.9-217.7-220.9c-73.6,0-38.4,131.3,89.7,342.6c70.4,118.5,128.1,240.2,128.1,269
		c0,32,16,67.2,32,76.9c48,32,38.4,144.1-16,163.3c-28.8,12.8-41.6,41.6-32,76.9c9.6,28.8-3.2,73.6-32,96.1
		c-41.6,35.2-48,25.6-48-60.8c0-54.4,16-99.3,32-99.3c41.6,0,41.6-124.9-6.4-259.4C2986,389.8,2771.5,50.3,2605-122.6
		c-83.3-89.7-156.9-182.5-163.3-204.9c-9.6-28.8-38.4-35.2-89.7-19.2c-73.6,22.4-64,35.2,163.3,253
		c131.3,124.9,262.6,278.6,294.6,339.4c153.7,294.6,182.5,358.6,198.5,457.9l16,102.5L2970,694c-28.8-60.8-83.3-176.1-121.7-256.2
		c-86.5-188.9-89.7-188.9-384.3-483.5c-230.6-233.8-307.4-278.6-307.4-176.1c0,70.4-269,294.6-464.3,384.3
		c-105.7,48-243.4,131.3-310.6,182.5c-144.1,118.5-304.2,384.3-333,566.8S971.9,1081.4,971.9,895.7z M3117.3,8.7
		c0-48-192.1-214.5-224.1-195.3c-25.6,16-3.2,54.4,70.4,115.3C3062.9,11.9,3117.3,40.7,3117.3,8.7z M2829.1-39.3
		c0-16-22.4-44.8-48-67.2s-48-57.6-44.8-76.9c0-22.4,6.4-19.2,19.2,6.4c6.4,19.2,28.8,38.4,44.8,38.4c41.6,0,35.2-89.7-9.6-102.5
		c-38.4-12.8-9.6-89.7,32-89.7c12.8,0,64,35.2,115.3,80.1c115.3,99.3,128.1,99.3,76.9,9.6c-22.4-41.6-35.2-89.7-32-108.9
		c6.4-32-259.4-41.6-416.3-16c-51.2,6.4-22.4,76.9,92.9,214.5C2774.7-16.9,2829.1,21.5,2829.1-39.3z"/>
	<path class="st0" d="M843.8,76c0-25.6,28.8-70.4,64-102.5c35.2-32,64-48,64-35.2c0,38.4,368.2-230.6,409.9-301
		c57.6-92.9,32-112.1-92.9-67.2c-134.5,48-156.9,44.8-156.9-12.8c0-67.2,124.9-108.9,233.8-76.9c96.1,28.8,262.6-16,233.8-64
		c-9.6-12.8-76.9-16-147.3-3.2c-140.9,25.6-160.1,6.4-70.4-76.9c54.4-48,70.4-48,153.7-3.2c108.9,57.6,204.9,64,204.9,12.8
		c0-19.2-28.8-41.6-60.8-51.2c-35.2-9.6-54.4-35.2-48-57.6c9.6-22.4-16-48-64-60.8c-44.8-9.6-115.3-51.2-153.7-92.9
		c-41.6-38.4-124.9-115.3-188.9-169.7c-108.9-92.9-192.1-285-112.1-259.4c19.2,6.4,41.6,38.4,44.8,73.6
		c12.8,67.2,144.1,204.9,198.5,204.9c35.2,0-72.4-169.8-156.8-273.4c-15-18.5-47.9-139.4,79.9,20.5c17.8,22.2,56.8,74.4,96.1,131.3
		c31,44.8,67.2,89.7,92.9,89.7c64,0,60.8-22.4-16-118.5c-35.2-44.8-64-102.5-64-124.9c0-54.4,64-60.8,64-3.2
		c3.2,51.2,118.5,201.7,140.9,179.3c12.8-9.6-3.2-70.4-28.8-134.5c-60.8-144.1,31.6-161.1,92.4-170.7
		c92.9-19.2,74.1,279.6,157.4,362.8c16,12.8,76.9,19.2,140.9,12.8c83.3-6.4,108.9,3.2,99.3,35.2c-12.8,32-80.1,38.4-269,32
		c-272.2-9.6-381.1,22.4-307.4,96.1c48,48,445.1,86.5,483.5,48c32-32,195.3,6.4,195.3,48c0,16-28.8,19.2-64,9.6s-64-6.4-64,12.8
		c0,16,28.8,41.6,67.2,51.2c60.8,22.4,64,22.4,6.4,67.2c-32,22.4-96.1,44.8-144.1,44.8c-51.2,0-89.7,16-89.7,35.2
		s-25.6,25.6-60.8,12.8c-35.2-9.6-73.6,0-89.7,22.4c-12.8,25.6-67.2,60.8-118.5,83.3c-83.3,38.4-92.9,80.1-16,89.7
		c76.9,12.8,67.2,22.4-32,41.6c-137.7,25.6-172.9,99.3-44.8,102.5c80.1,0,83.3,3.2,25.6,28.8c-35.2,16-108.9,28.8-163.3,28.8
		c-67.2,3.2-147.3,48-275.4,163.3C911.1,120.8,843.8,152.8,843.8,76z M1913.3-769.4c-64-48-144.1-44.8-144.1,6.4
		c0,35.2,134.5,76.9,176.1,54.4C1961.4-718.2,1948.5-743.8,1913.3-769.4z M1714.8-1281.7c-6.4-86.5-28.8-137.7-54.4-137.7
		c-57.6,0-89.7,54.4-48,80.1c16,9.6,32,60.8,32,108.9s9.6,99.3,22.4,108.9C1708.4-1076.8,1730.8-1150.5,1714.8-1281.7z"/>
	<path class="st0" d="M1762.8-61.7c-51.2-54.4,448.3-621.2,547.6-621.2c99.3,0,86.5,57.6-16,99.3C2191.9-545.2,2067-414,1929.3-193
		C1833.3-45.7,1804.4-23.3,1762.8-61.7z"/>
	<path class="st0" d="M946.3-167.4l-76.9-19.2l76.9-67.2c124.9-115.3,166.5-128.1,121.7-44.8l-38.4,73.6l99.3-70.4
		c54.4-41.6,118.5-67.2,137.7-60.8c22.4,9.6-25.6,57.6-105.7,108.9C1064.8-180.2,997.5-154.6,946.3-167.4z"/>
	<path class="st0" d="M3309.4-465.2c0-12.8,16-25.6,35.2-25.6c16,0,25.6-12.8,16-28.8c-9.6-16-48-22.4-83.3-12.8s-64,0-64-19.2
		s16-35.2,32-35.2c54.4,0,35.2-147.3-25.6-201.7c-28.8-28.8-115.3-64-192.1-80.1l-134.5-32v96.1c0,73.6-12.8,92.9-54.4,83.3
		c-41.6-6.4-54.4-35.2-48-99.3c6.4-57.6-6.4-92.9-41.6-105.7c-41.6-16-44.8-28.8-12.8-48c22.4-12.8,60.8-9.6,83.3,9.6
		c22.4,19.2,80.1,25.6,131.3,16c54.4-9.6,121.7,6.4,182.5,44.8c54.4,32,198.5,108.9,320.2,166.5c192.1,92.9,230.6,102.5,275.4,67.2
		c105.7-92.9,128.1-12.8,32,108.9c-44.8,51.2-115.3,76.9-256.2,96.1C3395.9-449.2,3309.4-449.2,3309.4-465.2z M3709.7-554.9
		c12.8-19.2-19.2-32-70.4-32s-121.7-22.4-156.9-48c-76.9-57.6-108.9-60.8-108.9-6.4C3373.5-554.9,3664.9-481.2,3709.7-554.9z"/>
	<path class="st0" d="M2147.1-926.3c-38.4-38.4,12.8-76.9,99.3-76.9c83.3,3.2,83.3,3.2,25.6,48
		C2201.5-900.7,2175.9-897.5,2147.1-926.3z"/>
	<path class="st0" d="M2348.8-1022.4c0-28.8-35.2-44.8-96.1-44.8c-108.9,0-288.2-115.3-288.2-182.5c0-54.4-86.5-54.4-105.7,0
		c-9.6,19.2-19.2,3.2-19.2-41.6l-3.2-80.1h1024.7c1216.8,0,1136.8,28.8,1136.8-381.1c0-441.9,172.9-403.5-1777.2-403.5
		c-1972.5,0-1825.2-32-1825.2,387.5c0,140.9,12.8,285,32,317c70.4,131.3,448.3,176.1,518.7,64c22.4-35.2,60.8-64,86.5-64
		c32,0,35.2,9.6,6.4,44.8c-19.2,25.6-32,64-28.8,86.5c6.4,32-41.6,48-182.5,54.4c-243.4,12.8-323.4-9.6-419.5-112.1
		c-70.4-73.6-76.9-112.1-76.9-377.9c0-278.6,3.2-297.8,86.5-374.6c0,0,84.3-70.1,170.9-70.1c56.7,0,1561.5-32.4,1561.5-32.4
		c1809.2-19.2,1777.2-22.4,1879.6,172.9c70.4,137.7,64,502.7-12.8,627.6c-80.1,131.3-134.5,137.7-871,144.1l-595.6,3.2v92.9
		c0,54.4,19.2,92.9,44.8,92.9c22.4,0,41.6-12.8,41.6-32c0-16,16-32,32-32c48,0,38.4,83.3-16,128.1
		C2582.6-974.3,2348.8-964.7,2348.8-1022.4z M2406.4-1182.5c38.4-12.8,70.4-41.6,70.4-64c0-32-51.2-44.8-192.1-44.8
		c-144.1,0-192.1,12.8-192.1,44.8C2092.6-1172.9,2246.3-1140.8,2406.4-1182.5z"/>
	<path class="st1" d="M600.4-1461.1c-32-19.2-44.8-89.7-44.8-259.4c0-188.9,12.8-243.4,60.8-288.2c99.3-89.7,240.2-28.8,253,102.5
		c6.4,76.9-3.2,102.5-38.4,102.5c-28.8,0-51.2-22.4-51.2-48s-28.8-48-64-48c-54.4,0-64,22.4-64,160.1c0,134.5,9.6,160.1,60.8,160.1
		c32,0,67.2-28.8,76.9-64c32-121.7,89.7-70.4,80.1,70.4c-9.6,124.9-16,131.3-115.3,134.5C696.5-1435.4,626.1-1448.2,600.4-1461.1z"
		/>
	<path class="st1" d="M2252.7-1512.3c0-35.2,16-73.6,32-83.3c19.2-9.6,32-76.9,32-144.1s-12.8-134.5-32-144.1
		c-16-9.6-32-54.4-32-99.3c0-70.4,12.8-76.9,137.7-76.9c224.1,0,249.8,38.4,240.2,336.2l-9.6,256.2l-182.5,9.6
		C2272-1448.2,2252.7-1454.7,2252.7-1512.3z M2534.5-1618c44.8-44.8,51.2-182.5,9.6-243.4c-16-25.6-54.4-38.4-86.5-32
		c-44.8,6.4-60.8,38.4-60.8,137.7c-3.2,70.4,3.2,137.7,9.6,153.7C2422.5-1566.7,2492.9-1576.3,2534.5-1618z"/>
	<path class="st1" d="M2883.6-1473.9c-38.4-38.4-25.6-505.9,16-547.6c54.4-54.4,201.7-48,249.8,9.6c44.8,54.4,57.6,461.1,19.2,525.1
		C3142.9-1448.2,2918.8-1435.4,2883.6-1473.9z M3066.1-1598.7c67.2-25.6,70.4-246.6,3.2-301c-108.9-89.7-208.1,179.3-105.7,281.8
		C3008.4-1573.1,3002-1573.1,3066.1-1598.7z"/>
	<path class="st1" d="M3386.3-1499.5c-12.8-25.6-3.2-70.4,19.2-96.1c48-57.6,51.2-265.8,3.2-313.8c-19.2-19.2-35.2-60.8-35.2-92.9
		c0-41.6,25.6-57.6,99.3-57.6h99.3l-22.4,147.3c-19.2,131.3-16,144.1,38.4,134.5c41.6-6.4,60.8-48,73.6-137.7
		c12.8-112.1,28.8-128.1,105.7-137.7c73.6-9.6,86.5,0,86.5,70.4c0,54.4-19.2,83.3-48,83.3c-73.6,0-115.3,131.3-60.8,192.1
		c28.8,35.2,35.2,80.1,19.2,144.1c-25.6,89.7-38.4,96.1-192.1,105.7C3443.9-1451.5,3399.1-1461.1,3386.3-1499.5z M3642.5-1598.7
		c80.1-32,60.8-108.9-28.8-108.9c-57.6,0-80.1,16-80.1,64C3533.6-1576.3,3559.2-1566.7,3642.5-1598.7z"/>
</g>
<g class="st2">
	<path class="st3" d="M75.9,329.4c-4.8,0-8.9-1.4-12.4-4.1s-6.2-6.7-8.1-11.8c-1.9-5.1-2.8-11.2-2.8-18.3c0-5.1,0.5-9.6,1.5-13.5
		s2.4-7.2,4.1-9.9c1.7-2.7,3.8-4.7,6-6.1c2.3-1.4,4.7-2.1,7.2-2.1c2.7,0,5,0.6,6.9,1.9c1.9,1.3,3.6,3.1,4.8,5.6l1.3-6.3h7.2v26.4
		h-9.6c-0.1-5.1-0.8-8.6-2-10.6c-1.2-1.9-2.7-2.9-4.6-2.9c-1.4,0-2.7,0.6-3.9,1.8c-1.2,1.2-2.2,3-2.9,5.5c-0.7,2.5-1.1,5.6-1.1,9.5
		c0,5.7,1,10,2.9,13c2,3,4.7,4.5,8.3,4.5c2.1,0,4.1-0.5,6.1-1.6c2-1.1,3.9-2.7,5.6-4.9l0.7,0.5v16.8c-2,2.3-4.4,3.9-7.2,5
		C81.2,328.9,78.5,329.4,75.9,329.4z"/>
	<path class="st3" d="M127.5,329.4c-4.3,0-8.1-1.3-11.2-4c-3.1-2.6-5.6-6.4-7.3-11.3c-1.7-4.9-2.6-10.7-2.6-17.5
		c0-6.8,0.9-12.7,2.6-17.6c1.7-4.9,4.1-8.7,7.3-11.4c3.1-2.7,6.9-4,11.2-4c4.4,0,8.1,1.3,11.2,4c3.1,2.7,5.6,6.4,7.3,11.4
		c1.7,4.9,2.6,10.8,2.6,17.6c0,6.7-0.9,12.6-2.6,17.5s-4.1,8.7-7.3,11.3C135.6,328.1,131.9,329.4,127.5,329.4z M127.5,315.7
		c2,0,3.5-1.6,4.5-4.9c1.1-3.2,1.6-8,1.6-14.3c0-6.3-0.5-11.1-1.6-14.3c-1.1-3.2-2.6-4.9-4.5-4.9s-3.5,1.6-4.5,4.9
		c-1.1,3.2-1.6,8-1.6,14.3c0,6.3,0.5,11.1,1.6,14.3C124.1,314,125.6,315.7,127.5,315.7z"/>
	<path class="st3" d="M190.2,328.3L175.8,292v22.5h4.2v13.7h-17v-13.7h4.2v-35.9H163v-13.7h18.8l14.4,36.3v-22.5H192v-13.7h17v13.7
		h-4.2v49.7L190.2,328.3z"/>
	<path class="st3" d="M222.9,328.3v-13.7h4.2v-35.9h-4.2v-13.7H242c7.8,0,13.7,2.7,17.7,8.1c4.1,5.4,6.1,13.3,6.1,23.7
		c0,10.4-2,18.2-6.1,23.6c-4,5.4-10,8-17.8,8H222.9z M240.8,314.9h1.4c3.1,0,5.3-1.4,6.6-4.2c1.3-2.8,2-7.5,2-14.2
		c0-6.6-0.7-11.3-2-14.1c-1.3-2.8-3.5-4.2-6.6-4.2h-1.4V314.9z"/>
	<path class="st3" d="M301.3,329.4c-4.3,0-8.1-1.3-11.2-4c-3.1-2.6-5.6-6.4-7.3-11.3c-1.7-4.9-2.6-10.7-2.6-17.5
		c0-6.8,0.9-12.7,2.6-17.6c1.7-4.9,4.1-8.7,7.3-11.4c3.1-2.7,6.9-4,11.2-4c4.4,0,8.1,1.3,11.2,4c3.1,2.7,5.6,6.4,7.3,11.4
		c1.7,4.9,2.6,10.8,2.6,17.6c0,6.7-0.9,12.6-2.6,17.5s-4.1,8.7-7.3,11.3C309.4,328.1,305.6,329.4,301.3,329.4z M301.3,315.7
		c2,0,3.5-1.6,4.5-4.9c1.1-3.2,1.6-8,1.6-14.3c0-6.3-0.5-11.1-1.6-14.3c-1.1-3.2-2.6-4.9-4.5-4.9s-3.5,1.6-4.5,4.9
		c-1.1,3.2-1.6,8-1.6,14.3c0,6.3,0.5,11.1,1.6,14.3C297.8,314,299.3,315.7,301.3,315.7z"/>
	<path class="st3" d="M336.7,328.3v-13.7h4.2v-35.9h-4.2v-13.7h24.2c5.2,0,9.2,1.5,12.1,4.4c2.8,3,4.2,7.3,4.2,13
		c0,3.7-0.6,6.8-1.8,9.2c-1.2,2.4-2.9,4.2-4.9,5.2c1.6,0.8,2.9,2.1,3.7,3.9c0.8,1.8,1.2,3.9,1.3,6.4l0.1,3.3c0,1.4,0.2,2.5,0.6,3.2
		c0.4,0.7,1,1.1,1.9,1.1h2.8v13.7h-9.2c-3.4,0-5.8-1.2-7.4-3.5c-1.6-2.3-2.4-5.8-2.5-10.3l-0.1-5.3c-0.1-4.2-1.4-6.4-3.9-6.4h-3.4
		v11.8h3.6v13.7H336.7z M358.4,278.2h-4.1v13.5h4.1c3.4,0,5.1-2.2,5.1-6.7S361.7,278.2,358.4,278.2z"/>
</g>
</svg>
