<?xml version="1.0" standalone="no"?>
<!DOCTYPE svg PUBLIC "-//W3C//DTD SVG 20010904//EN"
 "http://www.w3.org/TR/2001/REC-SVG-20010904/DTD/svg10.dtd">
<svg version="1.0" xmlns="http://www.w3.org/2000/svg"
 width="120.000000pt" height="120.000000pt" viewBox="0 0 120.000000 120.000000"
 preserveAspectRatio="xMidYMid meet">
<metadata>
Created by potrace 1.10, written by Peter Selinger 2001-2011
</metadata>
<g transform="translate(0.000000,120.000000) scale(0.100000,-0.100000)"
fill="#000000" stroke="none">
<path d="M220 1063 c0 -29 4 -43 8 -35 6 9 13 0 21 -27 7 -24 34 -65 66 -100
52 -55 66 -81 46 -81 -16 0 -110 107 -124 143 -9 19 -25 40 -36 47 -19 10 -21
8 -21 -19 0 -16 -5 -33 -10 -36 -11 -7 -3 -80 11 -105 6 -10 7 -5 4 15 -4 23
-3 26 4 10 5 -11 31 -40 57 -64 27 -23 59 -52 72 -64 17 -15 26 -17 31 -8 6 9
15 9 34 2 33 -13 36 2 5 23 -15 11 -25 12 -34 5 -9 -8 -19 -7 -32 3 -83 59
-135 131 -130 181 l3 32 28 -48 c32 -55 134 -160 142 -147 3 4 14 6 25 3 21
-5 28 11 10 22 -6 4 -8 11 -5 16 4 5 23 -2 43 -16 20 -14 42 -25 48 -25 13 0
104 -97 104 -109 0 -13 140 -48 165 -42 10 3 83 1 135 -2 14 -1 26 2 27 8 2 5
-7 10 -20 10 -16 0 -21 5 -19 20 2 11 4 31 5 45 1 14 6 28 11 32 6 4 11 22 13
40 1 18 5 61 8 95 6 64 -8 96 -19 42 -3 -16 -19 -50 -36 -74 -38 -56 -38 -67
0 -30 21 20 30 24 30 14 0 -18 -51 -69 -68 -69 -23 0 -12 41 28 107 22 37 40
75 40 84 0 10 5 21 10 24 15 10 12 45 -5 51 -9 4 -13 13 -10 24 3 9 -1 23 -10
30 -13 11 -15 8 -15 -19 0 -17 5 -31 10 -31 13 0 13 -39 -2 -81 -19 -54 -86
-160 -138 -214 -26 -28 -49 -57 -51 -64 -3 -9 -12 -11 -28 -6 -23 7 -20 11 51
79 41 39 82 87 92 106 48 92 57 112 62 143 l5 32 -17 -35 c-9 -19 -26 -55 -38
-80 -27 -59 -28 -59 -120 -151 -72 -73 -96 -87 -96 -55 0 22 -84 92 -145 120
-33 15 -76 41 -97 57 -45 37 -95 120 -104 177 -9 57 -24 53 -24 -5z m670 -277
c0 -15 -60 -67 -70 -61 -8 5 -1 17 22 36 31 26 48 35 48 25z m-90 -15 c0 -5
-7 -14 -15 -21 -8 -7 -15 -18 -14 -24 0 -7 2 -6 6 2 2 6 9 12 14 12 13 0 11
-28 -3 -32 -12 -4 -3 -28 10 -28 4 0 20 11 36 25 36 31 40 31 24 3 -7 -13 -11
-28 -10 -34 2 -10 -81 -13 -130 -5 -16 2 -7 24 29 67 36 42 53 54 53 35z"/>
<path d="M180 807 c0 -8 9 -22 20 -32 11 -10 20 -15 20 -11 0 12 115 -72 128
-94 18 -29 10 -35 -29 -21 -42 15 -49 14 -49 -4 0 -21 39 -34 73 -24 30 9 82
-5 73 -20 -3 -4 -24 -5 -46 -1 -44 8 -50 2 -22 -24 17 -15 22 -15 48 -1 34 18
64 20 64 4 0 -6 -9 -13 -19 -16 -11 -3 -17 -11 -15 -18 3 -7 -5 -15 -20 -19
-14 -3 -36 -16 -48 -29 -13 -12 -39 -36 -59 -53 -34 -29 -60 -89 -35 -81 6 2
13 12 14 23 4 21 45 64 62 64 11 0 -36 -75 -66 -104 -11 -11 -18 -42 -21 -95
-6 -77 -5 -79 21 -97 21 -13 34 -15 54 -8 25 9 27 14 30 74 2 36 7 69 12 73
11 12 -26 47 -50 47 -24 0 -26 13 -4 31 8 7 22 25 30 41 8 15 21 28 29 28 20
0 19 -7 -5 -37 -11 -14 -20 -32 -20 -39 0 -17 20 -19 20 -1 1 16 37 63 44 56
4 -3 -1 -22 -9 -42 -19 -45 -19 -57 -1 -57 24 0 43 -42 38 -87 -2 -24 -8 -43
-14 -43 -17 0 -3 -45 16 -48 29 -6 41 13 27 45 -8 19 -9 37 -3 54 9 22 11 18
27 -38 25 -88 45 -85 45 6 0 39 4 73 10 76 5 3 10 15 10 26 0 16 -6 20 -27 17
-18 -2 -27 -8 -25 -17 13 -60 14 -71 3 -71 -29 0 -54 171 -28 197 5 4 24 6 44
4 26 -2 34 1 31 11 -4 10 -25 12 -84 10 -85 -3 -119 7 -96 30 15 15 139 27
151 15 10 -10 61 2 61 15 0 5 -9 6 -20 3 -11 -3 -20 -2 -20 4 0 5 9 13 21 16
19 7 20 7 2 21 -10 7 -30 14 -45 14 -16 0 -28 5 -28 11 0 6 -8 8 -19 4 -11 -3
-23 0 -28 7 -4 8 -21 19 -37 26 -26 12 -29 25 -5 28 24 4 21 7 -10 13 -43 8
-54 31 -14 32 25 0 26 1 8 9 -11 5 -34 9 -51 9 -21 1 -46 15 -86 51 -57 51
-78 61 -78 37z m334 -264 c-20 -15 -45 -14 -45 2 0 11 42 24 55 17 5 -3 1 -11
-10 -19z m-62 -160 c-2 -27 -9 -43 -17 -43 -18 0 -28 17 -15 25 5 3 10 19 10
34 0 15 3 31 7 34 13 14 20 -9 15 -50z m-117 -143 c0 -41 -2 -45 -25 -45 -21
0 -26 5 -28 33 -5 47 4 64 30 60 20 -3 23 -9 23 -48z"/>
<path d="M467 764 c-16 -17 140 -194 171 -194 31 0 27 18 -5 31 -32 12 -71 53
-114 122 -30 46 -39 53 -52 41z"/>
<path d="M212 731 l-24 -6 24 -21 c39 -36 52 -40 38 -14 l-12 23 31 -22 c17
-13 37 -21 43 -19 7 3 -8 18 -33 34 -30 21 -51 29 -67 25z"/>
<path d="M950 638 c0 -4 5 -8 11 -8 5 0 8 -4 5 -9 -3 -5 -15 -7 -26 -4 -11 3
-20 0 -20 -6 0 -6 5 -11 10 -11 17 0 11 -46 -8 -63 -9 -9 -36 -20 -60 -25
l-42 -10 0 30 c0 23 -4 29 -17 26 -13 -2 -17 -11 -15 -31 2 -18 -2 -29 -13
-33 -13 -5 -14 -9 -4 -15 7 -4 19 -3 26 3 7 6 25 8 41 5 17 -3 38 2 57 14 17
10 62 34 100 52 60 29 72 32 86 21 33 -29 40 -4 10 34 -14 16 -36 24 -80 30
-34 5 -61 5 -61 0z m125 -28 c4 -6 -6 -10 -22 -10 -16 0 -38 -7 -49 -15 -24
-18 -34 -19 -34 -2 0 27 91 50 105 27z"/>
<path d="M587 494 c-12 -12 4 -24 31 -24 26 1 26 1 8 15 -22 17 -30 18 -39 9z"/>
<path d="M650 464 c0 -9 -11 -14 -30 -14 -34 0 -90 -36 -90 -57 0 -17 -27 -17
-33 0 -3 6 -6 1 -6 -13 l-1 -25 320 0 c380 0 355 9 355 -119 0 -138 54 -126
-555 -126 -616 0 -570 -10 -570 121 0 44 4 89 10 99 22 41 140 55 162 20 7
-11 19 -20 27 -20 10 0 11 3 2 14 -6 8 -10 20 -9 27 2 10 -13 15 -57 17 -76 4
-101 -3 -131 -35 -22 -23 -24 -35 -24 -118 0 -87 1 -93 27 -117 l28 -25 513
-7 c565 -6 555 -7 587 54 22 43 20 157 -4 196 -25 41 -42 43 -272 45 l-186 1
0 29 c0 17 6 29 14 29 7 0 13 -4 13 -10 0 -5 5 -10 10 -10 15 0 12 26 -5 40
-22 19 -95 22 -95 4z m18 -50 c12 -4 22 -13 22 -20 0 -10 -16 -14 -60 -14 -45
0 -60 4 -60 14 0 23 48 33 98 20z"/>
<path d="M104 327 c-10 -6 -14 -28 -14 -81 0 -59 4 -76 19 -90 31 -28 75 -9
79 32 2 24 -1 32 -12 32 -9 0 -16 -7 -16 -15 0 -8 -9 -15 -20 -15 -17 0 -20 7
-20 50 0 42 3 50 19 50 10 0 21 -9 24 -20 10 -38 28 -22 25 22 -3 39 -5 41
-36 42 -18 1 -40 -3 -48 -7z"/>
<path d="M620 311 c0 -11 5 -23 10 -26 6 -3 10 -24 10 -45 0 -21 -4 -42 -10
-45 -5 -3 -10 -17 -10 -31 0 -22 4 -24 43 -24 70 0 78 12 75 105 l-3 80 -57 3
c-52 3 -58 1 -58 -17z m88 -33 c14 -14 16 -57 3 -76 -5 -8 -17 -12 -27 -10
-14 2 -19 12 -19 43 -1 22 1 43 3 48 5 11 27 8 40 -5z"/>
<path d="M817 323 c-12 -12 -8 -158 5 -171 17 -17 63 -15 78 3 14 17 18 144 6
164 -8 12 -78 16 -89 4z m57 -39 c21 -8 22 -77 1 -94 -34 -28 -65 56 -33 88
14 14 12 14 32 6z"/>
<path d="M974 315 c-4 -8 -1 -22 6 -30 15 -18 16 -83 1 -98 -6 -6 -11 -19 -11
-29 0 -13 8 -18 31 -18 l31 0 -7 46 c-6 41 -5 45 12 42 13 -2 19 -15 23 -43 4
-35 9 -40 33 -43 23 -3 27 0 27 22 0 17 -6 26 -15 26 -23 0 -36 41 -19 60 9
11 11 25 6 45 -8 28 -12 30 -60 33 -40 2 -54 -1 -58 -13z m80 -31 c25 -10 19
-34 -9 -34 -18 0 -25 5 -25 20 0 21 8 24 34 14z"/>
</g>
</svg>
