<?xml version="1.0" encoding="utf-8"?>
<!-- Generator: Adobe Illustrator 22.0.1, SVG Export Plug-In . SVG Version: 6.00 Build 0)  -->
<svg version="1.1" id="Logo" xmlns="http://www.w3.org/2000/svg" xmlns:xlink="http://www.w3.org/1999/xlink" x="0px" y="0px"
	 viewBox="0 0 320.5 261" style="enable-background:new 0 0 320.5 261;" xml:space="preserve">
<style type="text/css">
	.st0{fill:#FFFFFF;stroke:#FFFFFF;stroke-width:2;stroke-miterlimit:10;}
	.st1{display:none;fill:#FFFFFF;stroke:#FFFFFF;stroke-width:2;stroke-miterlimit:10;}
</style>
<g id="Bird" transform="translate(0.000000,120.000000) scale(0.100000,-0.100000)">
	<path class="st0" d="M293.3,1017c0-92.9,12.8-137.7,25.6-112.1c19.2,28.8,41.6,0,67.2-86.5c22.4-76.9,108.9-208.1,211.3-320.2
		c166.5-176.1,211.3-259.4,147.3-259.4c-51.2,0-352.2,342.6-397.1,457.9c-28.8,60.8-80.1,128.1-115.3,150.5
		c-60.8,32-67.2,25.6-67.2-60.8c0-51.2-16-105.7-32-115.3c-35.2-22.4-9.6-256.2,35.2-336.2c19.2-32,22.4-16,12.8,48
		c-12.8,73.6-9.6,83.3,12.8,32c16-35.2,99.3-128.1,182.5-204.9C462.9,136.4,565.3,43.5,607,5.1c54.4-48,83.3-54.4,99.3-25.6
		c19.2,28.8,48,28.8,108.9,6.4c105.7-41.6,115.3,6.4,16,73.6c-48,35.2-80.1,38.4-108.9,16c-28.8-25.6-60.8-22.4-102.5,9.6
		C354,274,187.5,504.6,203.5,664.7l9.6,102.5l89.7-153.7C405.4,437.4,732,101.2,757.6,142.8c9.6,12.8,44.8,19.2,80.1,9.6
		c67.2-16,89.7,35.2,32,70.4c-19.2,12.8-25.6,35.2-16,51.2c12.8,16,73.6-6.4,137.7-51.2s134.5-80.1,153.7-80.1
		c41.6,0,333-310.6,333-349c0-41.6,448.3-153.7,528.4-134.5c32,9.6,265.8,3.2,432.3-6.4c44.8-3.2,83.3,6.4,86.5,25.6
		c6.4,16-22.4,32-64,32c-51.2,0-67.2,16-60.8,64c6.4,35.2,12.8,99.3,16,144.1s19.2,89.7,35.2,102.5c19.2,12.8,35.2,70.4,41.6,128.1
		c3.2,57.6,16,195.3,25.6,304.2c19.2,204.9-25.6,307.4-60.8,134.5c-9.6-51.2-60.8-160.1-115.3-237c-121.7-179.3-121.7-214.5,0-96.1
		c67.2,64,96.1,76.9,96.1,44.8c0-57.6-163.3-220.9-217.7-220.9c-73.6,0-38.4,131.3,89.7,342.6c70.4,118.5,128.1,240.2,128.1,269
		c0,32,16,67.2,32,76.9c48,32,38.4,144.1-16,163.3c-28.8,12.8-41.6,41.6-32,76.9c9.6,28.8-3.2,73.6-32,96.1
		c-41.6,35.2-48,25.6-48-60.8c0-54.4,16-99.3,32-99.3c41.6,0,41.6-124.9-6.4-259.4c-61.2-172.8-275.7-512.3-442.2-685.2
		c-83.3-89.7-156.9-182.5-163.3-204.9c-9.6-28.8-38.4-35.2-89.7-19.2c-73.6,22.4-64,35.2,163.3,253
		C1968,152.5,2099.3,306.2,2131.3,367c153.7,294.6,182.5,358.6,198.5,457.9l16,102.5l-54.4-112.1c-28.8-60.8-83.3-176.1-121.7-256.2
		c-86.5-188.9-89.7-188.9-384.3-483.5C1554.8-158.2,1478-203,1478-100.5c0,70.4-269,294.6-464.3,384.3
		c-105.7,48-243.4,131.3-310.6,182.5c-144.1,118.5-304.2,384.3-333,566.8S293.3,1202.7,293.3,1017z M2438.7,130
		c0-48-192.1-214.5-224.1-195.3c-25.6,16-3.2,54.4,70.4,115.3C2384.3,133.2,2438.7,162,2438.7,130z M2150.5,82
		c0-16-22.4-44.8-48-67.2s-48-57.6-44.8-76.9c0-22.4,6.4-19.2,19.2,6.4c6.4,19.2,28.8,38.4,44.8,38.4c41.6,0,35.2-89.7-9.6-102.5
		c-38.4-12.8-9.6-89.7,32-89.7c12.8,0,64,35.2,115.3,80.1c115.3,99.3,128.1,99.3,76.9,9.6c-22.4-41.6-35.2-89.7-32-108.9
		c6.4-32-259.4-41.6-416.3-16c-51.2,6.4-22.4,76.9,92.9,214.5C2096.1,104.4,2150.5,142.8,2150.5,82z"/>
	<path class="st0" d="M165.2,197.3c0-25.6,28.8-70.4,64-102.5c35.2-32,64-48,64-35.2c0,38.4,368.2-230.6,409.9-301
		c57.6-92.9,32-112.1-92.9-67.2c-134.5,48-156.9,44.8-156.9-12.8c0-67.2,124.9-108.9,233.8-76.9c96.1,28.8,262.6-16,233.8-64
		c-9.6-12.8-76.9-16-147.3-3.2c-140.9,25.6-160.1,6.4-70.4-76.9c54.4-48,70.4-48,153.7-3.2c108.9,57.6,204.9,64,204.9,12.8
		c0-19.2-28.8-41.6-60.8-51.2c-35.2-9.6-54.4-35.2-48-57.6c9.6-22.4-16-48-64-60.8c-44.8-9.6-115.3-51.2-153.7-92.9
		C693.7-833.7,610.4-910.6,546.4-965c-108.9-92.9-192.1-285-112.1-259.4c19.2,6.4,41.6,38.4,44.8,73.6
		c12.8,67.2,144.1,204.9,198.5,204.9c35.2,0-72.4-169.8-156.8-273.4c-15-18.5-47.9-139.4,79.9,20.5c17.8,22.2,56.8,74.4,96.1,131.3
		c31,44.8,67.2,89.7,92.9,89.7c64,0,60.8-22.4-16-118.5c-35.2-44.8-64-102.5-64-124.9c0-54.4,64-60.8,64-3.2
		c3.2,51.2,118.5,201.7,140.9,179.3c12.8-9.6-3.2-70.4-28.8-134.5c-60.8-144.1,31.6-161.1,92.4-170.7
		c92.9-19.2,74.1,279.6,157.4,362.8c16,12.8,76.9,19.2,140.9,12.8c83.3-6.4,108.9,3.2,99.3,35.2c-12.8,32-80.1,38.4-269,32
		c-272.2-9.6-381.1,22.4-307.4,96.1c48,48,445.1,86.5,483.5,48c32-32,195.3,6.4,195.3,48c0,16-28.8,19.2-64,9.6s-64-6.4-64,12.8
		c0,16,28.8,41.6,67.2,51.2c60.8,22.4,64,22.4,6.4,67.2c-32,22.4-96.1,44.8-144.1,44.8c-51.2,0-89.7,16-89.7,35.2
		s-25.6,25.6-60.8,12.8c-35.2-9.6-73.6,0-89.7,22.4c-12.8,25.6-67.2,60.8-118.5,83.3c-83.3,38.4-92.9,80.1-16,89.7
		c76.9,12.8,67.2,22.4-32,41.6c-137.7,25.6-172.9,99.3-44.8,102.5c80.1,0,83.3,3.2,25.6,28.8c-35.2,16-108.9,28.8-163.3,28.8
		c-67.2,3.2-147.3,48-275.4,163.3C232.5,242.1,165.2,274.1,165.2,197.3z M1234.7-648.1c-64-48-144.1-44.8-144.1,6.4
		c0,35.2,134.5,76.9,176.1,54.4C1282.8-596.9,1269.9-622.5,1234.7-648.1z M1036.2-1160.4c-6.4-86.5-28.8-137.7-54.4-137.7
		c-57.6,0-89.7,54.4-48,80.1c16,9.6,32,60.8,32,108.9s9.6,99.3,22.4,108.9C1029.8-955.5,1052.2-1029.2,1036.2-1160.4z"/>
	<path class="st0" d="M1084.2,59.6c-51.2-54.4,448.3-621.2,547.6-621.2c99.3,0,86.5,57.6-16,99.3
		c-102.5,38.4-227.4,169.6-365.1,390.6C1154.7,75.6,1125.8,98,1084.2,59.6z"/>
	<path class="st0" d="M267.7-46.1l-76.9-19.2l76.9-67.2c124.9-115.3,166.5-128.1,121.7-44.8L351-103.7l99.3-70.4
		c54.4-41.6,118.5-67.2,137.7-60.8c22.4,9.6-25.6,57.6-105.7,108.9C386.2-58.9,318.9-33.3,267.7-46.1z"/>
	<path class="st0" d="M2630.8-343.9c0-12.8,16-25.6,35.2-25.6c16,0,25.6-12.8,16-28.8c-9.6-16-48-22.4-83.3-12.8s-64,0-64-19.2
		s16-35.2,32-35.2c54.4,0,35.2-147.3-25.6-201.7c-28.8-28.8-115.3-64-192.1-80.1l-134.5-32v96.1c0,73.6-12.8,92.9-54.4,83.3
		c-41.6-6.4-54.4-35.2-48-99.3c6.4-57.6-6.4-92.9-41.6-105.7c-41.6-16-44.8-28.8-12.8-48c22.4-12.8,60.8-9.6,83.3,9.6
		c22.4,19.2,80.1,25.6,131.3,16c54.4-9.6,121.7,6.4,182.5,44.8c54.4,32,198.5,108.9,320.2,166.5c192.1,92.9,230.6,102.5,275.4,67.2
		c105.7-92.9,128.1-12.8,32,108.9c-44.8,51.2-115.3,76.9-256.2,96.1C2717.3-327.9,2630.8-327.9,2630.8-343.9z M3031.1-433.6
		c12.8-19.2-19.2-32-70.4-32s-121.7-22.4-156.9-48c-76.9-57.6-108.9-60.8-108.9-6.4C2694.9-433.6,2986.3-359.9,3031.1-433.6z"/>
	<path class="st0" d="M1468.5-805c-38.4-38.4,12.8-76.9,99.3-76.9c83.3,3.2,83.3,3.2,25.6,48C1522.9-779.4,1497.3-776.2,1468.5-805z
		"/>
	<path class="st0" d="M1670.2-901.1c0-28.8-35.2-44.8-96.1-44.8c-108.9,0-288.2-115.3-288.2-182.5c0-54.4-86.5-54.4-105.7,0
		c-9.6,19.2-19.2,3.2-19.2-41.6c0,0-14.7-63.7-3.2-80.1c43.1-61.2,154.5-48.2,297.8-31.9c135,15.4,416.3,70,416.3,118.2v92.9
		c0,54.4,19.2,92.9,44.8,92.9c22.4,0,41.6-12.8,41.6-32c0-16,16-32,32-32c48,0,38.4,83.3-16,128.1
		C1904-853,1670.2-843.4,1670.2-901.1z M1727.8-1061.2c38.4-12.8,54.2-48.5,70.4-64c39.8-38.1-27.2-48.5-192.1-44.8
		c-144.1,3.2-192.1,12.8-192.1,44.8C1414-1051.6,1567.7-1019.5,1727.8-1061.2z"/>
	<path class="st1" d="M-78.2-1339.8c-32-19.2-44.8-89.7-44.8-259.4c0-188.9,12.8-243.4,60.8-288.2c99.3-89.7,240.2-28.8,253,102.5
		c6.4,76.9-3.2,102.5-38.4,102.5c-28.8,0-51.2-22.4-51.2-48s-28.8-48-64-48c-54.4,0-64,22.4-64,160.1c0,134.5,9.6,160.1,60.8,160.1
		c32,0,67.2-28.8,76.9-64c32-121.7,89.7-70.4,80.1,70.4c-9.6,124.9-16,131.3-115.3,134.5C17.9-1314.1-52.5-1326.9-78.2-1339.8z"/>
	<path class="st1" d="M1574.1-1391c0-35.2,16-73.6,32-83.3c19.2-9.6,32-76.9,32-144.1s-12.8-134.5-32-144.1c-16-9.6-32-54.4-32-99.3
		c0-70.4,12.8-76.9,137.7-76.9c224.1,0,249.8,38.4,240.2,336.2l-9.6,256.2l-182.5,9.6C1593.4-1326.9,1574.1-1333.4,1574.1-1391z
		 M1855.9-1496.7c44.8-44.8,51.2-182.5,9.6-243.4c-16-25.6-54.4-38.4-86.5-32c-44.8,6.4-60.8,38.4-60.8,137.7
		c-3.2,70.4,3.2,137.7,9.6,153.7C1743.9-1445.4,1814.3-1455,1855.9-1496.7z"/>
	<path class="st1" d="M2205-1352.6c-38.4-38.4-25.6-505.9,16-547.6c54.4-54.4,201.7-48,249.8,9.6c44.8,54.4,57.6,461.1,19.2,525.1
		C2464.3-1326.9,2240.2-1314.1,2205-1352.6z M2387.5-1477.4c67.2-25.6,70.4-246.6,3.2-301c-108.9-89.7-208.1,179.3-105.7,281.8
		C2329.8-1451.8,2323.4-1451.8,2387.5-1477.4z"/>
	<path class="st1" d="M2707.7-1378.2c-12.8-25.6-3.2-70.4,19.2-96.1c48-57.6,51.2-265.8,3.2-313.8c-19.2-19.2-35.2-60.8-35.2-92.9
		c0-41.6,25.6-57.6,99.3-57.6h99.3l-22.4,147.3c-19.2,131.3-16,144.1,38.4,134.5c41.6-6.4,60.8-48,73.6-137.7
		c12.8-112.1,28.8-128.1,105.7-137.7c73.6-9.6,86.5,0,86.5,70.4c0,54.4-19.2,83.3-48,83.3c-73.6,0-115.3,131.3-60.8,192.1
		c28.8,35.2,35.2,80.1,19.2,144.1c-25.6,89.7-38.4,96.1-192.1,105.7C2765.3-1330.2,2720.5-1339.8,2707.7-1378.2z M2963.9-1477.4
		c80.1-32,60.8-108.9-28.8-108.9c-57.6,0-80.1,16-80.1,64C2855-1455,2880.6-1445.4,2963.9-1477.4z"/>
</g>
</svg>
